<svg xmlns="http://www.w3.org/2000/svg" width="24" height="24" viewBox="0 0 24 24" fill="none">
  <path d="M2.39123 14.918C2.22278 12.1926 3.36753 9.16323 5.72516 6.8056C10.8516 1.67916 21.5276 2.39772 21.5883 2.40185C21.5592 2.44416 13.7546 13.7599 4.50599 14.8183C3.79109 14.9001 3.08448 14.9323 2.39123 14.918Z" fill="#03CA9B"/>
  <path d="M3.47429 18.4025C3.73831 18.8236 4.05051 19.2179 4.41156 19.5789C7.57606 22.7434 13.2949 22.1553 17.1849 18.2653C22.3259 13.1242 21.5883 2.40185 21.5883 2.40185C21.56 2.46539 15.9655 15.0061 7.07401 17.7415C5.86702 18.1128 3.47429 18.4025 3.47429 18.4025Z" fill="#03CA9B"/>
</svg>