<?xml version="1.0" encoding="UTF-8" standalone="no"?>
<!-- Generator: Adobe Illustrator 24.0.0, SVG Export Plug-In . SVG Version: 6.00 Build 0)  -->

<svg
   version="1.1"
   id="Layer_1"
   x="0px"
   y="0px"
   viewBox="0 0 32 32"
   style="enable-background:new 0 0 32 32;"
   xml:space="preserve"
   sodipodi:docname="kucoin-token-kcs-logo.svg"
   inkscape:version="1.4.2 (f4327f4, 2025-05-13)"
   xmlns:inkscape="http://www.inkscape.org/namespaces/inkscape"
   xmlns:sodipodi="http://sodipodi.sourceforge.net/DTD/sodipodi-0.dtd"
   xmlns="http://www.w3.org/2000/svg"
   xmlns:svg="http://www.w3.org/2000/svg"><defs
   id="defs1" /><sodipodi:namedview
   id="namedview1"
   pagecolor="#505050"
   bordercolor="#eeeeee"
   borderopacity="1"
   inkscape:showpageshadow="0"
   inkscape:pageopacity="0"
   inkscape:pagecheckerboard="0"
   inkscape:deskcolor="#505050"
   inkscape:zoom="36.46875"
   inkscape:cx="16"
   inkscape:cy="16"
   inkscape:window-width="3440"
   inkscape:window-height="1369"
   inkscape:window-x="1072"
   inkscape:window-y="166"
   inkscape:window-maximized="1"
   inkscape:current-layer="Layer_1" />
<style
   type="text/css"
   id="style1">
	.st0{fill-rule:evenodd;clip-rule:evenodd;fill:#0093DD;}
	.st1{fill-rule:evenodd;clip-rule:evenodd;fill:#FFFFFF;}
</style>
<g
   id="g1">
	<circle
   class="st0"
   cx="16"
   cy="16"
   r="16"
   id="circle1"
   style="fill:#24ae8f;fill-opacity:1" />
	<path
   class="st1"
   d="M13.5,16l5.2,5.3L22,18c0.6-0.6,1.5-0.6,2,0c0,0,0,0,0,0c0.6,0.6,0.6,1.6,0,2.2l-4.3,4.4   c-0.6,0.6-1.5,0.6-2.1,0c0,0,0,0,0,0l-6.2-6.4V22c0,0.8-0.7,1.5-1.5,1.5c-0.8,0-1.5-0.7-1.5-1.5V10c0-0.8,0.7-1.5,1.5-1.5   c0.8,0,1.5,0.7,1.5,1.5v3.8l6.2-6.4c0.6-0.6,1.5-0.6,2.1,0c0,0,0,0,0,0l4.3,4.4c0.6,0.6,0.6,1.6,0,2.2c-0.6,0.6-1.5,0.6-2,0   c0,0,0,0,0,0l-3.3-3.4L13.5,16z M18.7,14.5c0.8,0,1.5,0.7,1.5,1.5s-0.7,1.5-1.5,1.5s-1.5-0.7-1.5-1.5   C17.2,15.2,17.9,14.5,18.7,14.5z"
   id="path1" />
</g>
</svg>
