<?xml version="1.0" encoding="UTF-8" standalone="no"?>
<svg
   id="a"
   viewBox="0 0 150 150"
   version="1.1"
   sodipodi:docname="okx.svg"
   inkscape:version="1.4.2 (f4327f4, 2025-05-13)"
   xmlns:inkscape="http://www.inkscape.org/namespaces/inkscape"
   xmlns:sodipodi="http://sodipodi.sourceforge.net/DTD/sodipodi-0.dtd"
   xmlns="http://www.w3.org/2000/svg"
   xmlns:svg="http://www.w3.org/2000/svg">
  <sodipodi:namedview
     id="namedview1"
     pagecolor="#505050"
     bordercolor="#eeeeee"
     borderopacity="1"
     inkscape:showpageshadow="0"
     inkscape:pageopacity="0"
     inkscape:pagecheckerboard="0"
     inkscape:deskcolor="#505050"
     inkscape:zoom="3.89"
     inkscape:cx="47.686375"
     inkscape:cy="102.9563"
     inkscape:window-width="3440"
     inkscape:window-height="1369"
     inkscape:window-x="1072"
     inkscape:window-y="166"
     inkscape:window-maximized="1"
     inkscape:current-layer="a" />
  <defs
     id="defs1">
    <style
       id="style1">.e{fill:none;}</style>
  </defs>
  <rect
     style="fill:#ffffff;fill-opacity:1;stroke-width:1.07127"
     id="rect1"
     width="28.020565"
     height="24.164524"
     x="36.118252"
     y="40.874035" />
  <rect
     style="fill:#ffffff;fill-opacity:1;stroke-width:1.01166"
     id="rect1-8"
     width="24.521166"
     height="24.626089"
     x="63.510174"
     y="62.678665" />
  <rect
     style="fill:#ffffff;fill-opacity:1;stroke-width:1.08756"
     id="rect1-8-1"
     width="28.338451"
     height="24.626089"
     x="37.416645"
     y="86.709511" />
  <rect
     style="fill:#ffffff;fill-opacity:1;stroke-width:1.08756"
     id="rect1-8-1-7"
     width="28.338451"
     height="24.626089"
     x="86.724937"
     y="85.850899" />
  <rect
     style="fill:#ffffff;fill-opacity:1;stroke-width:1.13857"
     id="rect1-8-5"
     width="30.205654"
     height="25.321337"
     x="84.678665"
     y="38.99229" />
  <g
     id="b">
    <g
       id="c">
      <path
         id="d"
         class="e"
         d="M0,0H150V150H0V0Z" />
    </g>
  </g>
  <path
     d="M13.81,13.57v123.98h123.98V13.57H13.81Zm26.82,28.64c0-.87,.71-1.58,1.58-1.58h20.3c.87,0,1.58,.71,1.58,1.58v20.3c0,.88-.71,1.59-1.58,1.59h-20.3c-.87,0-1.58-.71-1.58-1.59v-20.3Zm23.46,66.7c0,.87-.71,1.58-1.58,1.58h-20.3c-.87,0-1.58-.71-1.58-1.58v-20.3c0-.88,.71-1.59,1.58-1.59h20.3c.87,0,1.58,.71,1.58,1.59v20.3Zm21.86-21.62h-20.3c-.87,0-1.59-.71-1.59-1.59v-20.3c0-.87,.71-1.59,1.59-1.59h20.3c.87,0,1.59,.71,1.59,1.59v20.3c0,.87-.71,1.59-1.59,1.59Zm25.05,21.62c0,.87-.71,1.58-1.59,1.58h-20.3c-.87,0-1.58-.71-1.58-1.58v-20.3c0-.88,.71-1.59,1.58-1.59h20.3c.87,0,1.59,.71,1.59,1.59v20.3Zm0-46.41c0,.88-.71,1.59-1.59,1.59h-20.3c-.87,0-1.58-.71-1.58-1.59v-20.3c0-.87,.71-1.58,1.58-1.58h20.3c.87,0,1.59,.71,1.59,1.58v20.3Z"
     id="path1" />
</svg>
